<svg width="113" height="32" viewBox="0 0 113 32" fill="none" xmlns="http://www.w3.org/2000/svg">
<g id="Logo Frame">
<g id="twibble">
<path fill-rule="evenodd" clip-rule="evenodd" d="M46.5696 31.9846L46.6154 31.9881L46.6288 31.9891C46.7301 31.9968 46.8333 32.0047 46.9441 31.9965C47.0652 31.9876 47.1814 31.9612 47.3243 31.9181C47.4071 31.8931 47.5449 31.8441 47.6766 31.7905C47.7929 31.7431 47.9613 31.67 48.0656 31.5909C48.6991 31.1106 49.266 30.6283 49.7655 30.1436C50.1646 29.7564 50.5308 29.3795 50.8641 29.0129C52.1572 30.9281 54.1641 31.8725 56.8144 31.8725C58.4027 31.8725 59.7969 31.4817 60.9804 30.6855L60.9817 30.6845C62.1792 29.8715 63.0887 28.7421 63.7123 27.3106C64.3562 25.8591 64.6719 24.1725 64.6719 22.2607C64.6719 22.1875 64.6712 22.1147 64.67 22.0423C64.8656 22.0189 65.0652 21.9918 65.2689 21.9609C65.9337 21.8603 66.5732 21.7329 67.1874 21.5785C67.2402 22.9586 67.3599 24.1464 67.5489 25.1383C67.7594 26.2427 68.0561 27.2101 68.4436 28.0355L68.4447 28.038C69.0323 29.2679 69.8878 30.2119 71.0098 30.8558C72.1272 31.4969 73.4302 31.8102 74.9055 31.8102C76.4937 31.8102 77.888 31.4193 79.0714 30.6231L79.0728 30.6222C80.2703 29.8092 81.1797 28.6798 81.8034 27.2483C82.4462 25.7991 82.7619 24.1156 82.7629 22.2076C83.3041 22.19 83.8822 22.1391 84.4967 22.0553L84.5068 22.0537C85.1134 21.9544 85.7074 21.8356 86.289 21.6972C86.3185 23.2238 86.3988 24.5592 86.5309 25.7018C86.678 26.9741 86.9531 28.0557 87.3665 28.9355C87.8465 30.0126 88.5259 30.8119 89.4174 31.2963C90.2884 31.7696 91.3219 31.9971 92.5026 31.9971L92.5301 31.997L92.5472 31.9967L92.5594 31.997L92.5786 31.9971H92.581C93.5045 31.9971 94.4122 31.9265 95.7459 31.4952L95.7581 31.506L95.9329 31.4512C96.6345 31.2315 97.4757 30.9159 98.4548 30.5062L98.4584 30.5047C99.3754 30.1081 100.243 29.701 101.062 29.2835C101.716 30.0233 102.546 30.609 103.543 31.0436L103.551 31.047C104.661 31.4951 105.855 31.7177 107.128 31.7177H107.164C108.167 31.7177 109.125 31.5818 110.035 31.3086C110.938 31.0377 111.793 30.6681 112.599 30.1998L112.763 30.1045V29.9136C112.763 29.3922 112.66 28.864 112.46 28.3307C112.277 27.7572 111.983 27.2995 111.561 26.9871L111.397 26.8658L111.216 26.9602C110.595 27.2852 109.952 27.5404 109.285 27.7259C108.624 27.91 107.964 28.0016 107.306 28.0016C106.17 28.0016 105.277 27.773 104.601 27.341C108.321 24.8291 110.315 22.1131 110.412 19.1761L110.412 19.1651C110.412 17.9933 110.177 16.9444 109.697 16.0273C109.219 15.1132 108.549 14.3968 107.689 13.8855C106.825 13.348 105.839 13.0831 104.741 13.0831C103.445 13.0831 102.276 13.4364 101.246 14.1456C100.22 14.8281 99.4234 15.7739 98.8542 16.9721C98.2828 18.151 98.0022 19.508 98.0022 21.0344C98.0022 22.9641 98.3548 24.6913 99.0682 26.2086C98.9284 26.2797 98.7486 26.3721 98.5444 26.4771C97.7393 26.8911 96.5547 27.5001 95.9448 27.7663L95.1043 28.0956C94.2508 28.3852 93.5056 28.5691 92.7045 28.5691L92.6971 28.5691H92.6944L92.6893 28.5691H92.6878C91.5653 28.5691 90.8492 28.1562 90.4355 27.3735L90.4323 27.3677C90.2515 27.0393 90.0982 26.6037 89.9801 26.0499C89.881 25.4676 89.8004 24.7279 89.7394 23.8274C89.702 22.994 89.6816 21.9484 89.6787 20.6895C91.0621 20.0533 92.2914 19.1825 93.3649 18.0787L93.3674 18.0761C94.4946 16.8957 95.375 15.5026 96.0099 13.9012C96.6686 12.271 96.995 10.476 96.995 8.52137C96.995 5.95066 96.5475 3.89516 95.6094 2.39632C94.6815 0.859637 93.3585 0.0623025 91.669 0.0623025C90.516 0.0623025 89.5024 0.411417 88.6472 1.11516C87.8039 1.80517 87.1948 2.87376 86.7906 4.26905C86.5977 4.93962 86.4601 5.69022 86.3759 6.51882L86.3751 6.52871C86.3125 7.35043 86.2813 8.25368 86.2813 9.23794V18.2924C85.5672 18.499 84.8619 18.6654 84.1653 18.7917C83.4947 18.8956 82.8245 18.9549 82.1545 18.9697C81.8861 18.6769 81.7103 18.4688 81.524 18.2482C81.2135 17.8807 80.8802 17.4862 80.0765 16.6472C79.6437 16.0801 79.1143 15.7333 78.4866 15.7333C78.0458 15.7333 77.6065 15.8896 77.1752 16.1634C76.7433 16.4168 76.3517 16.758 75.9991 17.1805L75.9979 17.1821C75.6627 17.588 75.4117 18.0229 75.2508 18.4868L75.1884 18.6668L75.2908 18.827C75.4061 19.0073 75.595 19.1899 75.8001 19.362C76.0122 19.54 76.2706 19.7303 76.5508 19.924C77.1095 20.3101 77.7789 20.7257 78.3871 21.1034L78.392 21.1065C78.6475 21.2651 78.8921 21.417 79.1153 21.5584C79.159 21.9173 79.1808 22.276 79.1808 22.6346C79.1808 23.7961 78.9924 24.8123 78.6252 25.6905C78.2576 26.5489 77.7524 27.2064 77.1155 27.6791C76.4866 28.1457 75.7551 28.3822 74.9055 28.3822C74.0963 28.3822 73.4392 28.2178 72.9158 27.9101C72.4078 27.5787 71.9456 27.0627 71.538 26.3385C71.2372 25.7875 71.0009 25.0449 70.8408 24.0957C70.6889 23.195 70.5891 22 70.5443 20.5049C71.857 19.8291 73.0349 18.9233 74.0772 17.7905L74.0795 17.788C75.1844 16.5657 76.0425 15.1316 76.6555 13.4901C77.2921 11.8404 77.6073 10.0164 77.6073 8.0229C77.6073 5.6549 77.1787 3.72661 76.284 2.27262C75.3829 0.787219 74.1467 0 72.5901 0C71.5058 0 70.5479 0.303196 69.7341 0.919172C68.9245 1.53193 68.319 2.39698 67.9069 3.49109C67.6244 4.23689 67.4234 5.15346 67.2976 6.23266L67.2968 6.24018C67.1922 7.31738 67.1406 8.72311 67.1406 10.453V18.1643C66.3835 18.3752 65.635 18.5535 64.8951 18.6993C64.6021 18.7497 64.3093 18.7911 64.0165 18.8235C63.3348 17.9417 63.0587 17.5832 62.9168 17.3989L62.8235 17.2779L62.7705 17.2094C62.7268 17.1531 62.6827 17.0969 62.5904 16.9793C62.3732 16.6916 62.1731 16.5215 61.9817 16.4316C61.8837 16.3855 61.7943 16.3635 61.7156 16.3549C61.6497 16.3477 61.5697 16.351 61.5872 16.351C61.1464 16.351 60.7071 16.5074 60.2758 16.7811C59.8734 17.0172 59.5061 17.3294 59.1727 17.7126L59.1449 17.7448C59.1298 17.7625 59.1147 17.7803 59.0997 17.7983L59.0985 17.7998C58.7633 18.2057 58.5123 18.6406 58.3514 19.1045L58.289 19.2845L58.3914 19.4447C58.7735 20.0423 59.4089 20.552 60.4517 21.2406C60.5828 21.3272 60.7111 21.4119 60.8355 21.4947L61.0315 21.6824C61.0703 22.0207 61.0897 22.3589 61.0897 22.6969C61.0897 23.8584 60.9013 24.8746 60.5341 25.7528C60.1665 26.6112 59.6614 27.2687 59.0244 27.7414C58.3955 28.208 57.664 28.4445 56.8144 28.4445C56.0053 28.4445 55.3481 28.2801 54.8247 27.9724C54.3163 27.6407 53.8538 27.124 53.4459 26.3987L53.4411 26.3906C53.4305 26.3729 53.4204 26.3553 53.4107 26.3378C54.1742 25.4011 54.9061 24.3023 55.6076 23.0438C56.3599 21.694 57.0271 20.2101 57.6097 18.5931C57.8673 17.8781 58.1005 17.1491 58.3092 16.406C58.5733 15.4659 58.7983 14.5032 58.9843 13.5181C59.3389 11.7281 59.5162 9.91701 59.5162 8.08521C59.5162 5.71721 59.0876 3.78891 58.1929 2.33492C57.2918 0.84952 56.0556 0.0623025 54.499 0.0623025C53.4148 0.0623025 52.4568 0.365498 51.643 0.981475C50.8334 1.59423 50.2279 2.45929 49.8158 3.5534C49.5333 4.29919 49.3323 5.21576 49.2065 6.29496L49.2058 6.30248C49.1011 7.37968 49.0496 8.78541 49.0496 10.5153V19.1764C49.0496 21.6437 49.1831 23.6375 49.4557 25.1483C48.9572 25.7733 48.3783 26.4096 47.7179 27.0572C47.455 27.3072 47.1969 27.5413 46.9435 27.7595C46.7352 27.9388 46.4794 28.0413 46.2641 28.0487C46.0653 28.0555 45.9215 27.9858 45.8302 27.8333C45.5454 27.2899 45.3857 26.5028 45.3857 25.4385V16.1806L45.3812 16.1792C45.3792 15.8308 45.3676 15.5385 45.3027 15.2928C45.2085 14.9365 45.012 14.6953 44.7075 14.4562C43.8655 13.7949 42.6516 13.9477 41.9963 14.7974C41.9042 14.9169 41.8285 15.0176 41.7639 15.1036L41.7629 15.1049C41.6213 15.2935 41.5356 15.4071 41.4228 15.5294C41.1009 15.8784 40.7472 16.1987 40.3698 16.4898C39.3828 17.2511 38.3994 17.7462 37.4028 17.9185C37.2055 17.9527 37.0325 17.9763 36.8797 17.9901C36.8104 17.7558 36.732 17.5324 36.6442 17.3199C36.2144 16.2788 35.5824 15.5845 34.6822 15.5845C34.1552 15.5845 33.6596 15.8115 33.2014 16.2033C32.7425 16.575 32.362 17.066 32.0546 17.6643L32.0521 17.6694C31.7646 18.2496 31.5776 18.8728 31.4898 19.5369L31.4687 19.6973L31.5662 19.8257C32.0546 20.4685 32.7795 20.9715 33.7092 21.3514V21.4577C33.7092 22.8917 33.5976 24.1522 33.3776 25.2421C33.1581 26.3093 32.8348 27.1246 32.4239 27.7099C32.0363 28.242 31.5714 28.4827 31.0084 28.4827C30.6554 28.4827 30.3607 28.3828 30.1081 28.1886C29.8509 27.9909 29.6166 27.679 29.4189 27.224C29.039 26.3017 28.8324 24.7791 28.8324 22.6105V20.4645L28.5737 20.3731C28.1144 20.2109 27.6072 20.1332 27.0568 20.1332C26.7882 20.1332 26.52 20.1557 26.2523 20.2007L26.2467 20.2018C26.0054 20.246 25.7816 20.3022 25.5762 20.3713L25.312 20.4601V22.6105C25.312 24.5154 25.0674 25.9806 24.6044 27.0319C24.3771 27.548 24.1006 27.9069 23.7881 28.137C23.4796 28.3642 23.1135 28.4827 22.673 28.4827C22.3292 28.4827 22.049 28.4076 21.8187 28.2714C21.59 28.1361 21.3896 27.9281 21.2229 27.629C20.8974 26.986 20.7131 25.9426 20.7131 24.4486V20.6477C20.7131 19.7265 20.5392 18.881 20.1843 18.1182C19.8484 17.3518 19.3515 16.7344 18.6937 16.2766C18.0255 15.8115 17.2473 15.5845 16.375 15.5845C15.0662 15.5845 13.9487 16.025 13.049 16.9103C12.1587 17.7863 11.505 19.074 11.0624 20.7333L10.135 24.3829L10.1345 24.3852C9.74717 25.9486 9.30002 27.0151 8.81657 27.6343L8.81559 27.6356C8.58327 27.9357 8.34121 28.1526 8.06171 28.297C7.78522 28.4397 7.44991 28.5229 7.01336 28.5241C6.51057 28.4979 6.1387 28.36 5.83019 28.1337C5.51358 27.9015 5.23954 27.5584 4.9639 27.0835C4.39361 26.0453 4.08843 24.5238 4.08843 22.4788V16.4197H8.54078L8.64758 16.2041C8.84661 15.8024 8.93535 15.3228 8.93535 14.7835C8.93535 14.2442 8.84661 13.7646 8.64758 13.3629L8.54078 13.1474H4.08843V7.73777L3.81919 7.65131C3.32703 7.49328 2.81403 7.41487 2.28191 7.41487C1.96187 7.41487 1.55467 7.48176 1.1929 7.56123C0.827654 7.64146 0.475651 7.74197 0.258163 7.82283L0.0053448 7.91683L0.00524888 19.8761C0.00503528 20.0272 0.00388158 20.1819 0.00271003 20.3389C-0.00207721 20.9805 -0.00716241 21.662 0.0503805 22.309C0.0520409 22.3276 0.0528948 22.3469 0.053173 22.3713C0.0554401 22.5703 0.0704366 23.3618 0.169541 24.3222C0.267455 25.271 0.450504 26.4175 0.800241 27.3209C1.26246 28.7756 2.29254 30.0473 3.23423 30.8464L3.23753 30.8491C4.26315 31.7001 5.7199 31.9971 7.09796 31.9971H7.10515C7.12327 31.9971 7.13917 31.9971 7.15249 31.997C7.1605 31.997 7.16766 31.9969 7.17396 31.9967C7.20384 31.9959 7.2231 31.9935 7.2378 31.9916L7.23909 31.9915C7.25027 31.99 7.28523 31.9856 7.42705 31.9762C8.86554 31.881 10.1668 31.3689 11.1191 30.4287L11.1222 30.4257C12.1375 29.4011 12.902 27.8198 13.4455 25.7316L14.5878 21.245C14.8097 20.3903 15.0609 19.8185 15.3199 19.4874C15.568 19.1703 15.8331 19.0437 16.1281 19.0437C16.3079 19.0437 16.438 19.088 16.5381 19.1593C16.6404 19.2321 16.7392 19.3532 16.821 19.5515L16.8249 19.5607L16.8291 19.5698C17.0238 19.9805 17.1309 20.5109 17.1309 21.1774V24.7913C17.1309 26.9775 17.5718 28.7322 18.5029 30.0074C19.4461 31.2993 20.7804 31.9419 22.4569 31.9419C23.484 31.9419 24.4239 31.7097 25.2679 31.2391L25.2746 31.2352C25.9336 30.8502 26.497 30.3545 26.9638 29.7509C27.3579 30.36 27.844 30.8543 28.4238 31.2267C29.1681 31.7046 30.0022 31.9419 30.9158 31.9419C32.3051 31.9419 33.4936 31.4818 34.4551 30.5567C35.4208 29.6264 36.1293 28.3566 36.5962 26.7717C37.0208 25.3304 37.249 23.6948 37.286 21.869C37.5705 21.8412 37.8304 21.8008 38.0556 21.7619C39.452 21.5203 40.6523 20.9516 41.7336 20.2408C41.733 20.4352 41.7324 20.6582 41.732 20.8979C41.7305 21.6902 41.7305 22.6667 41.7365 23.3996C41.7486 24.8614 41.8378 27.0119 42.4215 28.7563C42.736 29.7575 43.2421 30.5362 43.944 31.0804C44.6458 31.6247 45.514 31.9118 46.5141 31.9806L46.5696 31.9846ZM72.988 13.4823L72.9863 13.4858C72.3196 14.8146 71.4919 15.8717 70.5067 16.6673V10.0791C70.5067 7.50315 70.6733 5.76297 70.9816 4.81036C71.1548 4.27639 71.3714 3.91471 71.6109 3.68941C71.8417 3.47235 72.1098 3.36574 72.4357 3.36574C72.7161 3.36574 72.9475 3.44511 73.1461 3.59876C73.3499 3.75643 73.5399 4.00883 73.7021 4.38527C74.0302 5.14682 74.2104 6.33604 74.2104 7.99175C74.2104 10.0784 73.7991 11.9051 72.988 13.4823ZM55.5407 13.3649C55.1748 15.1494 54.6671 16.8504 54.0178 18.4682C53.543 19.636 53.0317 20.6966 52.4845 21.651C52.4387 20.7658 52.4156 19.7336 52.4156 18.5533V10.1414C52.4156 9.17477 52.4391 8.32581 52.4847 7.59199C52.5606 6.37032 52.6979 5.4678 52.8905 4.87266C53.0637 4.3387 53.2804 3.97702 53.5199 3.75171C53.7506 3.53465 54.0187 3.42804 54.3446 3.42804C54.6251 3.42804 54.8564 3.50741 55.055 3.66106C55.2588 3.81874 55.4489 4.07113 55.611 4.44757C55.9392 5.20912 56.1193 6.39835 56.1193 8.05405C56.1193 9.50641 55.9847 10.9817 55.715 12.4803C55.6623 12.7732 55.6044 13.0669 55.5414 13.3616L55.5407 13.3649ZM93.598 8.45907C93.598 10.521 93.1679 12.3234 92.3191 13.8777C91.5944 15.187 90.7131 16.2035 89.6783 16.9388V9.58064C89.6783 7.17618 89.8758 5.55216 90.2354 4.65176C90.6136 3.75685 91.092 3.42804 91.6382 3.42804C91.9338 3.42804 92.1822 3.51633 92.3995 3.69256C92.623 3.87383 92.8318 4.16351 93.011 4.59178L93.0139 4.59844C93.3933 5.45989 93.598 6.73575 93.598 8.45907ZM106.101 17.3729L106.09 17.3601C105.758 16.9463 105.288 16.7274 104.634 16.7274C103.826 16.7274 103.147 17.0852 102.584 17.8498C102.038 18.6223 101.756 19.5816 101.756 20.7468C101.756 22.2393 101.97 23.4853 102.386 24.4961C103.847 23.4904 104.9 22.6006 105.561 21.8271C106.254 20.9915 106.613 20.1035 106.658 19.1574C106.657 18.3522 106.457 17.7723 106.101 17.3729Z" fill="#EF6351"/>
<path d="M41.5852 10.8553C42.0684 11.343 42.6603 11.5926 43.3402 11.5926C44.0352 11.5926 44.6312 11.3466 45.0988 10.8518C45.5798 10.3648 45.8259 9.76867 45.8259 9.08417C45.8259 8.38451 45.5833 7.78425 45.0954 7.31291C44.6283 6.82052 44.0335 6.5757 43.3402 6.5757C42.6438 6.5757 42.0404 6.82243 41.5543 7.313C41.0847 7.78693 40.8545 8.38748 40.8545 9.08417C40.8545 9.77032 41.1019 10.3676 41.5852 10.8553Z" fill="#EF6351"/>
</g>
</g>
</svg>
